<svg id="visual" viewBox="0 0 900 675" width="900" height="675" xmlns="http://www.w3.org/2000/svg" xmlns:xlink="http://www.w3.org/1999/xlink" version="1.1">
<rect width="900" height="675" fill="#19535F"></rect>
<g>
<g transform="translate(525 190)"><path d="M0 -78.8L68.3 -39.4L68.3 39.4L0 78.8L-68.3 39.4L-68.3 -39.4Z" fill="none" stroke="#0B7A75" stroke-width="2"></path></g>
<g transform="translate(291 420)"><path d="M0 -72L62.4 -36L62.4 36L0 72L-62.4 36L-62.4 -36Z" fill="none" stroke="#0B7A75" stroke-width="2"></path></g>
<g transform="translate(106 533)"><path d="M0 -35L30.3 -17.5L30.3 17.5L0 35L-30.3 17.5L-30.3 -17.5Z" fill="none" stroke="#0B7A75" stroke-width="2"></path></g>
<g transform="translate(514 525)"><path d="M0 -34L29.4 -17L29.4 17L0 34L-29.4 17L-29.4 -17Z" stroke="#0B7A75" fill="none" stroke-width="2"></path></g>
<g transform="translate(341 185)"><path d="M0 -51L44.2 -25.5L44.2 25.5L0 51L-44.2 25.5L-44.2 -25.5Z" stroke="#0B7A75" fill="none" stroke-width="2"></path></g>
<g transform="translate(805 544)"><path d="M0 -58L50.2 -29L50.2 29L0 58L-50.2 29L-50.2 -29Z" stroke="#0B7A75" fill="none" stroke-width="2"></path></g>
<g transform="translate(101 326)"><path d="M0 -53L45.9 -26.5L45.9 26.5L0 53L-45.9 26.5L-45.9 -26.5Z" stroke="#0B7A75" fill="none" stroke-width="2"></path></g>
<g transform="translate(670 320)"><path d="M0 -76L65.8 -38L65.8 38L0 76L-65.8 38L-65.8 -38Z" stroke="#0B7A75" fill="none" stroke-width="2"></path></g>
<g transform="translate(140 175)"><path d="M0 -71L61.5 -35.5L61.5 35.5L0 71L-61.5 35.5L-61.5 -35.5Z" stroke="#0B7A75" fill="none" stroke-width="2"></path></g>
<g transform="translate(747 133)"><path d="M0 -28L24.2 -14L24.2 14L0 28L-24.2 14L-24.2 -14Z" stroke="#0B7A75" fill="none" stroke-width="2"></path></g>
<g transform="translate(576 435)"><path d="M0 -40L34.6 -20L34.6 20L0 40L-34.6 20L-34.6 -20Z" stroke="#0B7A75" fill="none" stroke-width="2"></path></g>
<g transform="translate(808 360)"><path d="M0 -20L17.3 -10L17.3 10L0 20L-17.3 10L-17.3 -10Z" stroke="#0B7A75" fill="none" stroke-width="2"></path></g>
<g transform="translate(280 580)"><path d="M0 -40L34.6 -20L34.6 20L0 40L-34.6 20L-34.6 -20Z" stroke="#0B7A75" fill="none" stroke-width="2"></path></g>
</g>
</svg>